#!OML:ASF F:\VICON\USERDATA\INSTALL\rory3\rory3.ASF
:FULLY-SPECIFIED
:DEGREES
1413
root -12.3268 17.9271 -0.611077 182.49 82.4684 174.429
lowerback 3.71762 1.98037 -4.15981
upperback 1.40262 2.51583 0.711811
thorax -0.850403 1.25955 2.94866
lowerneck -17.4128 -1.36205 -8.68983
upperneck 37.528 4.91271 -4.37981
head 16.5321 0.738132 0.692893
rclavicle -3.16565e-014 6.16232e-015
rhumerus -29.5043 -1.46169 -81.8697
rradius 45.7032
rwrist 19.3576
rhand -23.2649 6.28157
rfingers 7.12502
rthumb 3.18732 -23.6743
lclavicle -3.16565e-014 6.16232e-015
lhumerus -34.5376 11.3142 76.9048
lradius 32.689
lwrist -6.78822
lhand -11.21 23.3999
lfingers 7.12502
lthumb 14.8182 52.8501
rfemur -23.1192 -12.7359 13.9177
rtibia 52.0987
rfoot -15.3772 -14.7814
rtoes 6.81654
lfemur -16.4983 1.82889 -20.733
ltibia 22.8993
lfoot -10.5862 2.98859
ltoes -21.2413
1414
root -12.2936 17.9266 -0.637668 181.048 82.6769 173.066
lowerback 3.82039 2.02476 -4.44011
upperback 1.42894 2.56095 0.670869
thorax -0.894305 1.28267 3.05811
lowerneck -17.3632 -1.37545 -8.6963
upperneck 37.5593 4.91653 -4.42291
head 16.5395 0.733832 0.675578
rclavicle -4.79568e-014 5.56597e-015
rhumerus -29.4915 -1.36299 -81.9374
rradius 45.8345
rwrist 19.3392
rhand -23.0855 6.30179
rfingers 7.12502
rthumb 3.36055 -23.6515
lclavicle -4.79568e-014 5.56597e-015
lhumerus -34.5015 11.3661 76.6291
lradius 32.6956
lwrist -6.98075
lhand -11.1528 23.2783
lfingers 7.12502
lthumb 14.8733 52.7244
rfemur -23.4774 -12.503 13.5254
rtibia 52.249
rfoot -14.8909 -12.7085
rtoes 8.13009
lfemur -16.2525 2.0625 -21.0343
ltibia 22.9812
lfoot -10.7831 3.10905
ltoes -21.903
1415
root -12.2607 17.9219 -0.659173 180.175 82.7755 172.2
lowerback 3.84051 2.02672 -4.60022
upperback 1.456 2.55705 0.581229
thorax -0.879929 1.28009 3.05551
lowerneck -17.3404 -1.38648 -8.646
upperneck 37.5672 4.88263 -4.43453
head 16.5393 0.724531 0.65498
rclavicle 9.19379e-015 -8.34896e-015
rhumerus -29.5273 -1.52736 -82.1037
rradius 46.0137
rwrist 19.4954
rhand -22.9595 6.66447
rfingers 7.12502
rthumb 3.48224 -23.2868
lclavicle 9.19379e-015 -8.34896e-015
lhumerus -34.3778 11.3295 76.2751
lradius 32.6939
lwrist -7.15689
lhand -11.2243 23.3821
lfingers 7.12502
lthumb 14.8044 52.8333
rfemur -23.8821 -12.4269 13.3122
rtibia 52.3202
rfoot -14.526 -10.7659
rtoes 9.95395
lfemur -16.1291 2.11697 -21.2063
ltibia 23.0798
lfoot -11.0113 3.16878
ltoes -20.4859
1416
root -12.2247 17.9189 -0.682209 180.193 82.8216 172.196
lowerback 3.76661 2.04627 -4.61309
upperback 1.48852 2.58678 0.500603
thorax -0.804568 1.2929 2.98145
lowerneck -17.24 -1.42258 -8.53734
upperneck 37.5181 4.77373 -4.45911
head 16.4916 0.69513 0.604305
rclavicle -4.64659e-015 3.27995e-015
rhumerus -29.544 -1.88153 -82.243
rradius 46.0965
rwrist 19.7002
rhand -23.1565 6.87939
rfingers 7.12502
rthumb 3.29193 -23.0749
lclavicle -4.64659e-015 3.27995e-015
lhumerus -34.1799 11.2003 75.9773
lradius 32.6699
lwrist -7.22272
lhand -11.4665 23.5912
lfingers 7.12502
lthumb 14.571 53.0594
rfemur -24.2751 -12.5384 13.2966
rtibia 52.3023
rfoot -14.1182 -9.36405
rtoes 8.90689
lfemur -16.0385 1.78125 -21.2253
ltibia 23.2181
lfoot -11.3284 3.47749
ltoes -17.1751
1417
root -12.188 17.9144 -0.707795 180.531 82.9595 172.583
lowerback 3.79055 2.06864 -4.60277
upperback 1.51194 2.61656 0.486504
thorax -0.795282 1.30738 2.95923
lowerneck -17.1882 -1.45184 -8.49017
upperneck 37.568 4.7114 -4.45014
head 16.5056 0.67705 0.5881
rclavicle 1.61513e-014 1.0138e-014
rhumerus -29.6558 -1.70232 -82.3762
rradius 46.24
rwrist 19.551
rhand -23.4439 6.66935
rfingers 7.12502
rthumb 3.01443 -23.2891
lclavicle 1.61513e-014 1.0138e-014
lhumerus -34.0997 11.3619 75.677
lradius 32.7084
lwrist -7.51538
lhand -11.4462 23.8474
lfingers 7.12502
lthumb 14.5906 53.3142
rfemur -24.5992 -12.6504 13.3297
rtibia 52.2023
rfoot -13.6967 -8.40883
rtoes 5.51495
lfemur -15.8832 1.49122 -21.2161
ltibia 23.4316
lfoot -11.6831 3.92944
ltoes -15.6799
1418
root -12.1529 17.9064 -0.728849 180.586 83.1563 172.683
lowerback 3.8262 2.07031 -4.69421
upperback 1.54303 2.61508 0.491592
thorax -0.787132 1.306 3.01514
lowerneck -17.2633 -1.46397 -8.55751
upperneck 37.6905 4.70563 -4.35155
head 16.5831 0.671231 0.641906
rclavicle 3.88873e-014 8.24956e-015
rhumerus -29.7548 -1.3877 -82.5282
rradius 46.4091
rwrist 19.3997
rhand -23.499 6.64873
rfingers 7.12502
rthumb 2.96123 -23.3105
lclavicle 3.88873e-014 8.24956e-015
lhumerus -34.0428 11.882 75.2787
lradius 32.7635
lwrist -8.28356
lhand -11.289 23.9318
lfingers 7.12502
lthumb 14.7421 53.3876
rfemur -24.939 -12.6876 13.3295
rtibia 52.0343
rfoot -13.5221 -7.57453
rtoes 3.63424
lfemur -15.7578 1.48199 -21.2426
ltibia 23.6415
lfoot -11.9392 4.20501
ltoes -15.5581
